<?xml version="1.0" encoding="utf-8"?>
<!-- Generator: Adobe Illustrator 15.0.0, SVG Export Plug-In . SVG Version: 6.00 Build 0)  -->
<!DOCTYPE svg PUBLIC "-//W3C//DTD SVG 1.1//EN" "http://www.w3.org/Graphics/SVG/1.1/DTD/svg11.dtd">
<svg version="1.1" id="Layer_1" xmlns="http://www.w3.org/2000/svg" xmlns:xlink="http://www.w3.org/1999/xlink" x="0px" y="0px"
	 width="294px" height="256.5px" viewBox="0 0 294 256.5" style="enable-background:new 0 0 294 256.5;" xml:space="preserve">
<style type="text/css">
<![CDATA[
	.st0{display:none;fill:#FFF200;}
	.st1{fill:#5D2E8F;}
	.st2{display:inline;fill:#FFFFFF;}
	.st3{fill:#FFFFFF;}
	.st4{display:none;}
]]>
</style>
<g id="XMLID_2_">
	<g>
		<path class="st3" d="M259.3,17.1c34.7,52.6,3.6,120.8-36.6,159.7c5.3-2.1,10.6-3.8,16.2-5.1c-23.7,40.9-61.2,65.1-108.4,69.6
			c-58.6,7.5-131.2-57.4-97.1-133c15.3-33.9,49.7-52.1,86-52.3c23.1-0.1,45.5,1.3,66.3-10.6c3.1-1.8,17.1-15.9,22.5-15.6
			c-1.9,13.5-6.2,26.3-12.8,38.2C224.8,62.5,245.5,42.8,259.3,17.1z"/>
	</g>
	<g>
	</g>
</g>
<circle class="st3" cx="114.9" cy="149.7" r="92.3"/>
<g class="st4">
	<path class="st2" d="M53.9,203.1v-108l0,0l61,108l61-108l0,0v108h-10.6h10.6h-61l0,0H54.7h9.6H53.9z"/>
</g>
<circle class="st0" cx="114.9" cy="149.7" r="92.3"/>
<g>
	<path class="st1" d="M79.9,100.7v50.5c0,7,2.5,10.5,7.5,10.5c2.1,0,4-0.7,5.5-2.2c1.5-1.5,2.2-3.2,2.2-5.3c0-2.1-0.7-3.9-2.1-5.4
		c-1.4-1.5-3.1-2.2-5.2-2.2c-1.4,0-3.1,0.6-5,1.9v-21.7c2.3-0.2,4.1-0.3,5.3-0.3c7.4,0,13.8,2.7,19.1,8c5.3,5.3,7.9,11.8,7.9,19.3
		c0,7.7-2.7,14.2-8.1,19.5c-5.4,5.3-12,7.9-19.8,7.9c-3.9,0-7.8-0.9-11.5-2.6c-3.7-1.7-6.8-4-9.3-7c-4.2-5.1-6.3-11.6-6.3-19.7
		v-51.3H79.9z"/>
	<path class="st1" d="M142.4,206.7h-19.7v-51c0-8.1,2.1-14.6,6.3-19.7c2.4-2.9,5.5-5.2,9.3-7c3.7-1.7,7.6-2.6,11.5-2.6
		c7.8,0,14.5,2.6,19.8,7.9c5.4,5.3,8.1,11.7,8.1,19.4c0,7.5-2.7,13.9-8,19.3c-5.3,5.4-11.7,8.1-19,8.1c-1.2,0-3-0.1-5.3-0.4v-21.7
		c1.6,1.3,3.2,2,4.9,2c2,0,3.8-0.8,5.3-2.3s2.2-3.3,2.2-5.4c0-2.1-0.8-3.8-2.3-5.3c-1.5-1.5-3.3-2.2-5.4-2.2
		c-5.1,0-7.6,3.5-7.6,10.5V206.7z"/>
</g>
</svg>
